<?xml version="1.0" encoding="UTF-8" standalone="no"?>
<!DOCTYPE svg PUBLIC "-//W3C//DTD SVG 1.1//EN" "http://www.w3.org/Graphics/SVG/1.1/DTD/svg11.dtd">
<!-- Created with Vectornator (http://vectornator.io/) -->
<svg height="512.0px" stroke-miterlimit="10" style="fill-rule:nonzero;clip-rule:evenodd;stroke-linecap:round;stroke-linejoin:round;" version="1.1" viewBox="0 0 512 512" width="512.0px" xml:space="preserve" xmlns="http://www.w3.org/2000/svg" xmlns:xlink="http://www.w3.org/1999/xlink">
<defs>
<path d="M191.542 95.911C191.542 76.0312 220.403 59.9155 256.004 59.9155C291.605 59.9155 320.466 76.0312 320.466 95.911C320.466 115.791 291.605 131.906 256.004 131.906C220.403 131.906 191.542 115.791 191.542 95.911Z" id="Fill"/>
<filter color-interpolation-filters="sRGB" filterUnits="userSpaceOnUse" height="207.707" id="Filter" width="207.708" x="147.754" y="91.6943">
<feDropShadow dx="-4.39618" dy="8.58453" flood-color="#ffffff" flood-opacity="1" in="SourceGraphic" result="Shadow" stdDeviation="33.8168"/>
</filter>
</defs>
<g id="Слой-1">
<path d="M256.004 7.80172L31.0595 98.0556C31.0595 98.0556 31.0595 188.31 31.0595 233.437C31.0595 410.109 191.995 492.601 256.004 504.198C320.013 492.601 480.948 410.109 480.948 233.437C480.948 188.31 480.948 98.0556 480.948 98.0556L256.004 7.80172Z" fill="#3d4048" fill-rule="nonzero" opacity="1" stroke="none"/>
<path d="M191.534 90.3702L191.534 391.617C191.534 425.012 218.607 452.085 252.002 452.085L259.998 452.085C293.393 452.085 320.466 425.012 320.466 391.617L320.466 90.3702C320.466 110.691 291.601 127.207 256 127.207C220.399 127.207 191.534 110.692 191.534 90.3702Z" fill="#fdfbef" fill-rule="nonzero" opacity="1" stroke="none"/>
<path d="M229.768 95.911C229.768 87.3404 241.514 80.3926 256.004 80.3926C270.494 80.3926 282.24 87.3404 282.24 95.911C282.24 104.482 270.494 111.429 256.004 111.429C241.514 111.429 229.768 104.482 229.768 95.911Z" fill="none" opacity="1" stroke="#fdfbef" stroke-linecap="butt" stroke-linejoin="round" stroke-width="5.28048"/>
<g opacity="1">
<mask height="71.991" id="StrokeMask" maskUnits="userSpaceOnUse" width="128.924" x="191.542" y="59.9155">
<rect fill="#000000" height="71.991" stroke="none" width="128.924" x="191.542" y="59.9155"/>
<use fill="#ffffff" fill-rule="evenodd" stroke="none" xlink:href="#Fill"/>
</mask>
<use fill="none" mask="url(#StrokeMask)" stroke="#fdfbef" stroke-linecap="butt" stroke-linejoin="round" stroke-width="10.561" xlink:href="#Fill"/>
</g>
<path d="M236.692 186.963C236.692 176.298 245.338 167.652 256.004 167.652C266.67 167.652 275.316 176.298 275.316 186.963C275.316 197.629 266.67 206.275 256.004 206.275C245.338 206.275 236.692 197.629 236.692 186.963Z" fill="#99b793" fill-rule="nonzero" filter="url(#Filter)" stroke="none"/>
<path d="M251.604 221.697C251.604 219.501 253.574 217.72 256.004 217.72C258.434 217.72 260.404 219.501 260.404 221.697C260.404 223.893 258.434 225.673 256.004 225.673C253.574 225.673 251.604 223.893 251.604 221.697Z" fill="#99b793" fill-rule="nonzero" opacity="1" stroke="none"/>
<g opacity="1">
<path d="M121.857 136.2C92.712 163.162 73.6892 206.707 73.6892 256C73.6892 305.293 92.712 348.838 121.857 375.8" fill="none" opacity="1" stroke="#fdfbef" stroke-linecap="round" stroke-linejoin="miter" stroke-width="7.08287"/>
<path d="M145.604 170.621C123.914 189.029 109.615 220.382 109.615 256C109.615 291.618 123.914 322.971 145.604 341.379" fill="none" opacity="1" stroke="#fdfbef" stroke-linecap="round" stroke-linejoin="miter" stroke-width="7.08287"/>
<path d="M169.774 205.658C155.439 215.181 145.541 234.022 145.541 256C145.541 277.978 155.439 296.819 169.774 306.342" fill="none" opacity="1" stroke="#fdfbef" stroke-linecap="round" stroke-linejoin="miter" stroke-width="7.08287"/>
</g>
<g opacity="1">
<path d="M390.289 136.2C419.434 163.162 438.457 206.707 438.457 256C438.457 305.293 419.434 348.838 390.289 375.8" fill="none" opacity="1" stroke="#fdfbef" stroke-linecap="round" stroke-linejoin="miter" stroke-width="7.08287"/>
<path d="M366.542 170.621C388.232 189.029 402.531 220.382 402.531 256C402.531 291.618 388.232 322.971 366.542 341.379" fill="none" opacity="1" stroke="#fdfbef" stroke-linecap="round" stroke-linejoin="miter" stroke-width="7.08287"/>
<path d="M342.373 205.658C356.707 215.181 366.605 234.022 366.605 256C366.605 277.978 356.707 296.819 342.373 306.342" fill="none" opacity="1" stroke="#fdfbef" stroke-linecap="round" stroke-linejoin="miter" stroke-width="7.08287"/>
</g>
</g>
</svg>
