<?xml version="1.0" encoding="UTF-8" standalone="no"?>
<!DOCTYPE svg PUBLIC "-//W3C//DTD SVG 1.1//EN" "http://www.w3.org/Graphics/SVG/1.1/DTD/svg11.dtd">
<!-- Created with Vectornator (http://vectornator.io/) -->
<svg height="100%" stroke-miterlimit="10" style="fill-rule:nonzero;clip-rule:evenodd;stroke-linecap:round;stroke-linejoin:round;" version="1.1" viewBox="0 0 512 512" width="100%" xml:space="preserve" xmlns="http://www.w3.org/2000/svg" xmlns:xlink="http://www.w3.org/1999/xlink">
<defs>
<linearGradient gradientTransform="matrix(435.75 431.121 -399.344 435.75 42.1551 41.2356)" gradientUnits="userSpaceOnUse" id="LinearGradient" x1="0" x2="1" y1="0" y2="0">
<stop offset="0" stop-color="#00ddff"/>
<stop offset="1" stop-color="#ff00d4"/>
</linearGradient>
</defs>
<g id="Слой-2">
<path d="M2 115.372C2 52.7584 52.7584 2 115.372 2L396.628 2C459.242 2 510 52.7584 510 115.372L510 396.628C510 459.242 459.242 510 396.628 510L115.372 510C52.7584 510 2 459.242 2 396.628L2 115.372Z" fill="url(#LinearGradient)" fill-rule="nonzero" opacity="1" stroke="none"/>
<path d="M31 256C31 131.736 131.736 31 256 31C380.264 31 481 131.736 481 256C481 380.264 380.264 481 256 481C131.736 481 31 380.264 31 256Z" fill="#2d2d2f" fill-rule="nonzero" opacity="1" stroke="none"/>
<path d="M256 84.4893C278.872 84.4893 299.742 86.8841 315.078 94.9923C330.679 103.24 340.363 117.17 340.363 140.077L340.363 369.872C340.363 392.73 330.707 407.166 315.152 415.932C299.809 424.579 278.902 427.511 256 427.511C233.097 427.511 212.191 424.579 196.848 415.932C181.293 407.167 171.637 392.731 171.637 369.872L171.637 140.077C171.637 117.17 181.321 103.24 196.922 94.9916C212.259 86.8841 233.13 84.4893 255.999 84.4893L256 84.4893ZM184.331 332.796L184.44 333.021C185.181 334.56 186.76 337.827 197.669 338.273C203.276 338.501 211.505 336.591 219.093 333.972C227.611 331.034 235.205 327.27 237.27 324.703L237.488 324.815L237.488 141.874C237.488 130.824 234.286 120.826 229.13 113.621C224.287 106.854 217.79 102.653 210.811 102.653C203.832 102.653 197.335 106.853 192.492 113.621C187.337 120.825 184.134 130.824 184.134 141.874L184.134 332.857L184.33 332.796L184.331 332.796ZM237.488 328.305C233.797 330.919 227.34 333.931 220.373 336.335C212.387 339.089 203.632 341.097 197.505 340.847C190.146 340.547 186.282 339.027 184.135 337.396L184.135 374.229C184.135 385.279 187.337 395.277 192.493 402.482C197.336 409.249 203.833 413.45 210.811 413.45C217.791 413.45 224.287 409.25 229.131 402.482C234.286 395.277 237.489 385.279 237.489 374.229L237.489 328.304L237.488 328.305ZM210.811 97.4837C220.289 97.4837 228.754 102.689 234.757 111.076C240.445 119.024 243.976 129.931 243.976 141.874L243.976 374.23C243.976 386.173 240.445 397.079 234.757 405.027C229.958 411.731 223.587 416.402 216.382 418.006C227.977 421.147 241.532 422.341 256 422.341C277.712 422.341 297.366 419.655 311.427 411.73C325.277 403.925 333.874 390.832 333.874 369.871C333.874 369.871 333.874 238.04 333.874 180.592C333.874 123.143 333.874 140.076 333.874 140.076C333.874 119.163 325.306 106.59 311.503 99.2931C297.435 91.8553 277.745 89.6586 256 89.6586C234.255 89.6586 215.162 91.5822 201.094 99.0194C189.821 104.979 183.685 124.318 183.685 124.318C183.685 124.318 182.634 115.273 186.263 110.203C192.266 101.817 201.333 97.483 210.811 97.483L210.811 97.4837Z" fill="#ffffff" fill-rule="nonzero" opacity="1" stroke="none"/>
<path d="M200.942 99.4398C202.029 98.6241 205.478 100.034 207.683 99.593C208.598 99.41 209.156 98.5303 210.135 98.3673C219.724 96.769 233.013 105.615 236.488 114.302C238.057 118.224 241.597 122.278 242.31 126.559C245.557 146.041 245.068 166.649 245.068 186.62C245.068 194.216 243.993 202.077 245.068 209.602C245.653 213.696 244.389 218.089 245.068 222.166C246.253 229.273 245.681 236.966 245.681 244.229C245.681 250.265 246.222 256.683 245.374 262.615C244.281 270.266 243.969 280.965 245.068 288.661C245.801 293.793 244.643 299.168 245.374 304.289C246.85 314.619 245.681 325.998 245.681 336.465C245.681 353.74 247.277 371.934 244.455 388.865C243.563 394.22 240.979 399.292 239.246 404.493C238.525 406.655 237.456 409.819 235.569 411.234C235.232 411.487 234.445 411.949 234.343 411.54C234.02 410.248 235.607 407.365 235.875 406.025C236.093 404.937 236.375 404.316 236.794 403.267C236.914 402.967 236.872 402.119 237.101 402.348C237.696 402.943 236.488 405.641 236.488 404.799C236.488 404.101 238.936 400.108 237.714 402.96C237.081 404.436 229.592 414.513 229.134 414.605C225.92 415.248 223.209 415.882 220.247 417.363C219.918 417.527 219.067 417.715 219.328 417.976C220.846 419.494 234.249 421.019 237.458 421.661C243.507 422.871 248.681 418.782 254.874 419.814C256.17 420.03 257.177 421.346 258.551 421.346C259.592 421.346 260.264 419.988 261.309 419.814C263.019 419.529 265.722 419.528 267.438 419.814C273.242 420.782 280.067 421.08 285.823 420.121C287.83 419.786 289.084 417.998 290.726 417.669C292.049 417.405 293.731 417.73 295.016 417.363C298.718 416.305 302.142 413.547 306.048 412.766C307.797 412.416 310.084 412.111 311.564 410.928C314.303 408.736 316.551 406.019 319.225 403.88C323.331 400.595 327.919 396.259 329.03 390.703C330.313 384.29 332.501 377.949 333.32 371.398C333.922 366.586 333.324 360.998 332.401 356.383C331.105 349.902 333.526 343.009 332.708 336.465C331.838 329.51 333.242 322.205 332.095 315.321C331.512 311.827 331.275 307.272 331.788 303.677C333.455 292.008 333.014 280.022 333.014 268.13C333.014 262.77 333.895 256.564 333.014 251.277C331.5 242.193 332.302 231.639 333.32 222.472C333.999 216.366 332.311 209.834 333.32 203.78C334.412 197.231 333.417 190.44 334.24 183.862C336.486 165.891 337.213 143.201 329.95 126.253C328.761 123.479 328.442 120.267 326.885 117.672C325.319 115.062 324.422 111.834 322.595 109.399C321.796 108.333 315.613 102.819 314.322 102.044C313.082 101.301 311.2 101.388 310.032 100.512C306.225 97.6572 302.48 95.9376 297.774 94.9965C293.608 94.1633 289.618 91.8249 285.517 90.7065C276.486 88.2436 267.372 89.5427 258.551 91.0129C252.907 91.9536 246.872 90.7989 241.084 91.6258C231.83 92.9478 222.117 91.3141 212.893 92.8515C209.945 93.3428 206.24 95.311 203.7 96.8351C202.801 97.3746 201.868 97.9042 200.942 98.3673C200.329 98.6737 198.423 99.2016 199.103 99.2866C200.117 99.4132 200.738 99.593 200.942 99.4398Z" fill="#ffffff" fill-rule="nonzero" opacity="1" stroke="#ffffff" stroke-linecap="round" stroke-linejoin="round" stroke-width="6.37521"/>
</g>
</svg>
